<?xml version="1.0" standalone="no"?>
<!DOCTYPE svg PUBLIC "-//W3C//DTD SVG 20010904//EN"
 "http://www.w3.org/TR/2001/REC-SVG-20010904/DTD/svg10.dtd">
<svg version="1.0" xmlns="http://www.w3.org/2000/svg"
 width="1878.000000pt" height="842.000000pt" viewBox="0 0 1878.000000 842.000000"
 preserveAspectRatio="xMidYMid meet">
<metadata>

</metadata>
<g transform="translate(0.000000,842.000000) scale(0.100000,-0.100000)"
fill="#b30000" stroke="none">
<path d="M0 4210 l0 -4210 9390 0 9390 0 0 4210 0 4210 -9390 0 -9390 0 0
-4210z m18740 0 l0 -4180 -9360 0 -9360 0 0 4180 0 4180 9360 0 9360 0 0
-4180z"/>
<path d="M627 7223 c-4 -3 -7 -1344 -7 -2979 l0 -2972 23 -6 c12 -3 995 -6
2183 -6 1806 0 2163 2 2173 14 8 10 10 796 9 2982 l-3 2969 -2186 3 c-1202 1
-2189 -1 -2192 -5z m1819 -1207 c12 -17 14 -244 14 -1547 l0 -1526 21 -27 c47
-60 55 -61 389 -58 253 2 313 6 350 19 67 25 89 51 100 120 5 32 12 591 16
1243 3 652 7 1317 9 1479 1 274 3 295 20 307 15 11 78 14 297 14 256 0 279 -1
296 -18 18 -18 19 -79 15 -1623 -4 -1856 -4 -1874 -26 -1919 -10 -18 -17 -39
-17 -47 0 -46 -103 -169 -165 -199 -16 -7 -37 -18 -45 -22 -8 -5 -37 -16 -65
-25 -44 -14 -150 -16 -830 -18 -919 -3 -841 -12 -967 114 l-78 77 0 1824 c0
1447 3 1826 13 1834 22 18 48 19 345 18 278 -1 294 -2 308 -20z"/>
<path d="M5200 7211 c-7 -14 -10 -955 -10 -2970 0 -2662 2 -2951 16 -2965 14
-14 223 -16 2106 -16 1403 0 2096 4 2109 10 19 11 19 68 19 2970 0 1627 -3
2965 -6 2974 -6 15 -201 16 -2115 16 -2074 0 -2108 0 -2119 -19z m3211 -1158
c16 -18 21 -267 10 -468 -6 -108 -7 -110 -34 -123 -21 -10 -159 -14 -630 -18
-645 -5 -714 -9 -758 -51 -36 -33 -38 -59 -40 -457 -1 -381 -4 -366 77 -413
l39 -22 532 -1 532 0 48 -26 c126 -67 216 -183 247 -319 12 -54 13 -510 2
-1232 -5 -388 -7 -415 -26 -450 -11 -21 -20 -43 -20 -49 0 -20 -113 -129 -162
-156 -116 -64 -68 -61 -1020 -65 l-868 -4 -25 25 -25 25 0 285 c0 290 4 327
39 342 9 4 312 9 673 12 544 3 659 7 669 18 6 8 20 14 30 14 27 0 71 54 86
103 9 29 13 141 13 372 1 399 2 397 -86 429 -56 20 -77 21 -369 21 -170 0
-403 -3 -516 -7 -280 -10 -358 6 -453 92 -55 50 -92 110 -105 169 -12 58 -13
1087 -2 1486 l8 240 33 49 c39 57 138 156 157 156 7 0 30 9 50 20 37 20 57 20
959 20 845 0 923 -1 935 -17z"/>
<path d="M9633 7223 c-20 -7 -19 -5936 0 -5952 10 -8 562 -11 2043 -11 1116 0
2039 3 2052 6 l22 6 -2 2977 -3 2976 -2050 2 c-1127 1 -2056 -1 -2062 -4z
m3120 -1132 c13 -5 32 -17 41 -27 17 -17 18 -90 10 -1443 -4 -784 -9 -1462
-11 -1506 -1 -44 -5 -253 -8 -465 -5 -342 -8 -386 -22 -397 -21 -16 -554 -19
-583 -3 -11 6 -24 27 -29 48 -7 25 -9 279 -5 777 6 697 6 742 -11 758 -16 17
-48 18 -429 15 l-411 -3 -25 -25 -25 -25 -3 -756 c-2 -657 -4 -759 -17 -769
-11 -9 -93 -14 -293 -18 -268 -4 -278 -4 -302 16 l-25 20 3 1864 c3 1422 6
1869 15 1888 l12 25 291 3 c236 2 293 0 303 -11 8 -10 12 -226 13 -767 l3
-754 25 -6 c14 -3 212 -3 440 0 l415 5 11 25 c10 21 23 770 24 1386 0 147 -14
138 232 144 112 3 233 6 270 7 37 2 78 -1 91 -6z"/>
<path d="M13947 7223 c-4 -3 -7 -1344 -7 -2979 0 -2599 2 -2973 15 -2977 26
-11 4119 -8 4135 3 13 8 15 351 18 2965 1 2033 -1 2962 -8 2976 -11 19 -41 19
-2079 19 -1137 0 -2071 -3 -2074 -7z m2469 -1081 c20 -13 32 -47 43 -117 6
-39 15 -88 20 -110 20 -77 43 -187 52 -243 5 -32 15 -82 24 -112 8 -30 15 -69
15 -88 0 -18 6 -48 14 -66 8 -19 17 -65 21 -102 5 -38 13 -82 20 -99 7 -16 15
-61 19 -99 4 -38 13 -81 21 -97 8 -15 15 -46 15 -67 0 -22 9 -68 20 -102 11
-34 20 -79 20 -99 0 -20 9 -65 20 -99 11 -35 20 -83 20 -107 0 -23 7 -59 15
-78 8 -20 17 -62 21 -94 3 -32 12 -75 20 -96 8 -20 14 -57 14 -80 0 -24 9 -68
20 -100 11 -31 20 -67 20 -79 0 -13 8 -61 19 -108 11 -47 25 -110 31 -140 6
-30 18 -86 26 -125 8 -38 21 -110 30 -159 8 -49 19 -97 24 -106 5 -9 12 -45
16 -80 4 -36 13 -82 20 -102 7 -21 16 -66 20 -100 4 -35 13 -80 20 -100 7 -21
16 -66 20 -100 4 -35 13 -77 21 -95 7 -18 13 -50 13 -72 0 -22 7 -60 15 -85 8
-24 20 -78 25 -118 5 -41 14 -87 20 -102 13 -36 13 -79 -2 -94 -9 -9 -97 -12
-335 -12 l-324 0 -24 25 c-14 13 -25 33 -25 43 0 11 -7 36 -15 55 -8 20 -15
53 -15 74 0 21 -9 58 -20 82 -11 24 -20 56 -20 71 0 15 -3 42 -6 59 -10 49
-44 54 -403 49 l-313 -3 -24 -30 c-13 -17 -26 -46 -29 -65 -3 -19 -12 -55 -19
-80 -8 -25 -18 -63 -22 -85 -4 -22 -13 -52 -20 -67 -8 -15 -14 -41 -14 -58 0
-23 -9 -40 -31 -61 -28 -26 -38 -29 -98 -29 -36 -1 -163 -3 -281 -6 -210 -6
-216 -5 -242 16 -23 18 -28 29 -28 68 0 25 6 64 14 87 16 47 32 130 46 240 5
43 16 88 24 99 7 12 17 64 21 116 4 52 13 106 20 120 7 14 15 50 19 80 10 76
45 250 55 269 5 9 12 59 15 111 4 52 13 111 21 130 15 40 41 175 51 270 4 36
13 78 22 94 8 17 18 74 22 128 4 54 12 104 18 111 9 11 34 147 52 280 4 31 13
64 20 72 6 8 16 59 20 114 5 55 15 113 23 128 8 15 17 58 21 95 6 64 40 237
52 268 3 8 10 59 14 112 5 54 16 110 23 125 8 15 18 57 21 93 7 65 25 152 51
245 8 28 16 85 18 127 3 49 10 86 20 102 10 14 17 36 17 50 0 31 16 73 34 91
10 11 52 15 163 18 331 6 629 6 639 -1z"/>
<path d="M16016 4562 c-3 -3 -6 -20 -6 -38 0 -18 -7 -54 -16 -80 -8 -25 -22
-83 -29 -128 -14 -85 -24 -133 -56 -278 -10 -48 -19 -98 -19 -113 0 -14 -7
-42 -15 -62 -8 -19 -15 -50 -15 -67 0 -18 -9 -66 -19 -107 -28 -110 -36 -190
-19 -200 7 -5 106 -9 219 -9 224 0 221 -1 213 56 -17 110 -38 214 -49 245 -7
19 -17 73 -21 120 -4 46 -13 93 -20 105 -8 11 -16 43 -20 70 -6 51 -26 151
-49 244 -7 30 -16 89 -20 130 -4 41 -9 82 -11 91 -5 17 -38 31 -48 21z"/>
</g>
</svg>
