<?xml version="1.0" standalone="no"?>
<!DOCTYPE svg PUBLIC "-//W3C//DTD SVG 20010904//EN"
 "http://www.w3.org/TR/2001/REC-SVG-20010904/DTD/svg10.dtd">
<svg version="1.0" xmlns="http://www.w3.org/2000/svg"
 width="1000.000000pt" height="1000.000000pt" viewBox="0 0 1200.000000 1200.000000"
 preserveAspectRatio="xMidYMid meet">

<g transform="translate(0.000000,882.000000) scale(0.100000,-0.100000)"
fill="#0A1931" stroke="none">
<path d="M7970 7275 l0 -205 55 0 55 0 0 205 c0 198 -1 205 -20 205 -19 0 -20
-7 -20 -105 0 -87 -3 -105 -15 -105 -12 0 -15 18 -15 105 0 98 -1 105 -20 105
-19 0 -20 -7 -20 -205z"/>
<path d="M7212 7418 c-8 -8 -12 -63 -12 -180 l0 -168 50 0 50 0 0 168 c0 180
-3 192 -50 192 -14 0 -31 -5 -38 -12z"/>
<path d="M2580 7295 l0 -26 98 3 c92 3 97 4 100 26 3 22 1 22 -97 22 l-101 0
0 -25z"/>
<path d="M2495 7157 l0 -82 398 -3 397 -2 0 85 0 85 -397 0 -398 0 0 -83z"/>
<path d="M8583 7220 c-5 -18 -14 -20 -74 -20 l-69 0 0 -64 0 -65 53 -3 52 -3
3 -91 3 -90 62 -16 c34 -9 72 -19 85 -23 22 -7 22 -7 22 109 l0 116 50 0 50 0
0 65 0 65 -64 0 c-55 0 -64 3 -69 20 -4 16 -14 20 -52 20 -38 0 -48 -4 -52
-20z"/>
<path d="M2780 6963 l0 -78 102 2 103 1 3 76 3 76 -106 0 -105 0 0 -77z"/>
<path d="M7102 6963 c2 -43 6 -77 11 -75 4 1 70 2 147 2 l140 0 0 75 0 75
-150 0 -151 0 3 -77z"/>
<path d="M7910 6963 l0 -78 120 3 120 3 0 75 0 74 -120 0 -120 0 0 -77z"/>
<path d="M1385 6849 c-206 -29 -383 -191 -425 -389 -8 -41 -10 -359 -8 -1215
l3 -1160 23 -56 c57 -137 180 -252 318 -300 l69 -24 845 0 845 0 68 23 c133
46 237 137 297 259 32 65 42 111 59 272 23 214 165 385 370 445 48 14 150 16
836 16 851 0 840 1 949 -58 65 -34 174 -143 208 -208 59 -111 58 -85 58 -1084
0 -810 -2 -923 -16 -971 -48 -164 -171 -293 -334 -351 l-65 -23 -2492 -3
-2493 -2 0 -700 c0 -472 4 -716 11 -752 29 -140 148 -294 272 -352 128 -60
-150 -56 3999 -54 l3803 3 65 22 c120 41 231 134 289 242 66 124 61 -120 61
3081 0 2799 -1 2908 -19 2972 -46 167 -182 303 -356 356 -44 14 -451 16 -3615
18 -1961 1 -3592 -2 -3625 -7z m5740 -1723 c173 -47 341 -162 441 -302 92
-129 141 -266 151 -421 29 -456 -332 -842 -790 -843 -222 0 -428 88 -580 249
-134 143 -206 314 -214 511 -4 81 0 136 10 186 68 321 308 561 627 629 82 18
272 13 355 -9z m-4552 -640 c64 -31 120 -89 151 -155 31 -69 30 -198 -3 -266
-32 -64 -93 -124 -156 -155 -74 -35 -189 -35 -265 1 -70 33 -126 89 -159 159
-21 44 -26 70 -26 131 0 67 4 84 35 145 40 77 104 134 180 159 69 23 176 14
243 -19z m4824 -1562 c15 -11 38 -36 51 -55 22 -33 23 -39 20 -229 -3 -186 -4
-197 -26 -228 -49 -68 -42 -67 -492 -67 -387 0 -407 1 -439 20 -72 42 -76 55
-79 262 -2 103 -1 197 2 209 9 33 55 85 91 100 24 11 114 13 437 11 395 -2
407 -3 435 -23z"/>
<path d="M6910 5065 c0 -8 7 -15 15 -15 8 0 15 7 15 15 0 8 -7 15 -15 15 -8 0
-15 -7 -15 -15z"/>
<path d="M6640 5041 c-16 -31 4 -63 37 -59 34 4 52 32 37 56 -16 26 -60 28
-74 3z"/>
<path d="M7154 5029 c-10 -17 13 -36 27 -22 12 12 4 33 -11 33 -5 0 -12 -5
-16 -11z"/>
<path d="M6830 4940 c-234 -37 -436 -230 -485 -465 -28 -132 -12 -253 50 -384
49 -103 163 -217 266 -266 131 -62 252 -78 384 -50 207 43 384 205 447 410 29
91 30 242 4 330 -56 188 -212 348 -394 405 -75 23 -196 32 -272 20z"/>
<path d="M6442 4928 c-30 -30 -1 -83 38 -70 32 11 39 42 14 66 -19 19 -36 20
-52 4z"/>
<path d="M7367 4914 c-14 -15 -6 -34 14 -34 14 0 19 5 17 17 -3 18 -20 27 -31
17z"/>
<path d="M6281 4736 c-28 -33 22 -83 55 -55 8 7 14 24 12 38 -2 20 -9 27 -29
29 -14 2 -31 -4 -38 -12z"/>
<path d="M7517 4723 c-3 -5 -2 -15 3 -22 10 -17 43 -6 38 12 -6 15 -34 22 -41
10z"/>
<path d="M6202 4508 c-19 -19 -14 -46 10 -59 18 -10 24 -8 40 11 31 38 -15 83
-50 48z"/>
<path d="M7611 4501 c-17 -11 -7 -41 13 -41 22 0 30 20 15 36 -9 8 -19 10 -28
5z"/>
<path d="M6193 4244 c-9 -24 10 -49 38 -49 20 0 24 5 24 30 0 25 -4 30 -28 33
-18 2 -29 -2 -34 -14z"/>
<path d="M7600 4231 c0 -27 19 -36 37 -18 18 18 9 37 -18 37 -12 0 -19 -7 -19
-19z"/>
<path d="M6287 4024 c-15 -16 -7 -53 14 -59 30 -10 58 19 43 43 -12 18 -45 28
-57 16z"/>
<path d="M7513 4004 c-3 -8 -1 -20 5 -26 16 -16 42 -2 42 22 0 24 -38 28 -47
4z"/>
<path d="M6445 3834 c-18 -18 -16 -33 7 -47 35 -22 66 21 36 51 -16 16 -23 15
-43 -4z"/>
<path d="M7360 3824 c-11 -12 -10 -18 3 -32 16 -15 18 -15 33 0 19 18 12 48
-9 48 -8 0 -20 -7 -27 -16z"/>
<path d="M6654 3706 c-10 -26 4 -48 28 -44 17 2 23 10 23 28 0 18 -6 26 -23
28 -13 2 -25 -3 -28 -12z"/>
<path d="M7150 3705 c-11 -13 -11 -19 3 -32 21 -21 49 -9 45 19 -4 28 -30 35
-48 13z"/>
<path d="M6902 3668 c-7 -7 -12 -15 -12 -19 0 -15 31 -38 45 -33 21 9 26 32 9
49 -19 18 -26 19 -42 3z"/>
<path d="M2340 4419 c-116 -52 -170 -165 -136 -283 19 -66 52 -107 115 -144
38 -22 57 -27 111 -26 220 2 322 261 160 407 -76 68 -165 85 -250 46z"/>
<path d="M6758 2831 c-15 -37 -17 -38 -72 -43 -97 -8 -151 -64 -151 -158 0
-66 18 -99 75 -138 34 -23 35 -23 346 -20 298 3 314 4 340 24 72 53 93 138 52
208 -33 57 -68 79 -134 84 -55 5 -57 6 -73 43 l-16 39 -176 0 -176 0 -15 -39z"/>
<path d="M9090 5385 l0 -665 205 0 205 0 0 665 0 665 -205 0 -205 0 0 -665z"/>
<path d="M1897 3643 c-4 -3 -7 -318 -7 -700 l0 -693 110 0 110 0 0 700 0 700
-103 0 c-57 0 -107 -3 -110 -7z"/>
<path d="M1740 2681 c-14 -28 -12 -124 3 -145 9 -12 31 -20 65 -24 l52 -5 0
97 0 96 -55 0 c-43 0 -56 -4 -65 -19z"/>
<path d="M1800 2340 l0 -60 35 0 35 0 0 60 0 60 -35 0 -35 0 0 -60z"/>
<path d="M2132 2343 c3 -57 3 -58 36 -61 l32 -3 0 60 0 61 -35 0 -36 0 3 -57z"/>
<path d="M1800 2157 c0 -73 10 -77 201 -77 192 0 199 2 202 73 l2 47 -202 0
-203 0 0 -43z"/>
</g>
</svg>
