<?xml version="1.0" encoding="utf-8"?>
<!-- Generator: Adobe Illustrator 19.0.0, SVG Export Plug-In . SVG Version: 6.00 Build 0)  -->
<svg version="1.1" id="Layer_1" xmlns="http://www.w3.org/2000/svg" xmlns:xlink="http://www.w3.org/1999/xlink" x="0px" y="0px"
	 viewBox="0 0 500 500" style="enable-background:new 0 0 500 500;" xml:space="preserve">
<style type="text/css">
	.st0{fill-rule:evenodd;clip-rule:evenodd;fill:#EC2224;}
	.st1{fill-rule:evenodd;clip-rule:evenodd;fill:#FFFFFF;}
</style>
<g id="XMLID_1_">
	<path id="XMLID_3_" class="st0" d="M350,205.9h76.6c3.3,0,5.9,2.7,5.9,5.9l0,76.6c0,3.3-2.7,5.9-5.9,5.9H350
		c-3.3,0-5.9-2.7-5.9-5.9l0-76.6C344.1,208.6,346.7,205.9,350,205.9"/>
	<path id="XMLID_4_" class="st0" d="M165.6,205.9h76.6c3.3,0,5.9,2.7,5.9,5.9l0,76.6c0,3.3-2.7,5.9-5.9,5.9h-76.6
		c-3.3,0-5.9-2.7-5.9-5.9v-76.6C159.7,208.6,162.4,205.9,165.6,205.9"/>
	<path id="XMLID_5_" class="st0" d="M257.8,205.9h76.6c3.3,0,5.9,2.7,5.9,5.9l0,76.6c0,3.3-2.7,5.9-5.9,5.9h-76.6
		c-3.3,0-5.9-2.7-5.9-5.9l0-76.6C251.9,208.6,254.5,205.9,257.8,205.9"/>
	<path id="XMLID_6_" class="st0" d="M73.4,205.7H150c3.3,0,5.9,2.7,5.9,5.9v76.6c0,3.3-2.7,5.9-5.9,5.9H73.4c-3.3,0-5.9-2.7-5.9-5.9
		v-76.6C67.5,208.3,70.2,205.7,73.4,205.7"/>
	<path id="XMLID_7_" class="st1" d="M196.7,260.2h-15.2c0.3,2.5,0.9,4.7,1.9,6.7c1.1,2.1,2.6,3.9,4.5,5.4c1.9,1.5,4.2,2.6,6.9,3.4
		c2.7,0.8,5.7,1.1,9,1.1c3.7,0,6.9-0.4,9.7-1.1c2.8-0.7,5.1-1.9,7.1-3.3c1.9-1.5,3.4-3.3,4.3-5.4c1-2.1,1.4-4.6,1.4-7.3
		c0-2.9-0.8-5.3-2.1-7.1c-1.3-1.9-3.2-3.3-5.4-4.4c-3.2-1.7-6.6-2.5-9.9-3.3c-1.4-0.4-2.9-0.7-4.3-1.1c-2.2-0.5-3.8-1.3-5-2.2
		c-1.4-1-2.1-2.2-2.1-3.2c0-0.7,0.1-1.2,0.4-1.8c0.2-0.5,0.6-0.9,1.1-1.3l0,0c1.1-0.7,2.8-1,4.5-1c1.8,0.1,3.5,0.5,4.6,1.2
		c0.6,0.4,1.1,0.9,1.4,1.5c0.3,0.5,0.5,1.1,0.7,1.8H225c-0.3-2.3-0.9-4.4-1.9-6.2c-1-1.9-2.5-3.6-4.3-4.9c-1.8-1.4-4-2.4-6.6-3.1
		c-2.6-0.7-5.5-1-8.7-1c-3.3,0-6.3,0.4-8.9,1.1c-2.6,0.7-4.8,1.8-6.7,3.2c-1.9,1.4-3.3,3.1-4.2,5c-0.9,1.9-1.4,4.1-1.4,6.6
		c0,3.8,1.1,6.5,3,8.5c1.9,2.1,4.7,3.5,8,4.6l0,0c1.1,0.4,2.4,0.8,3.9,1.3c1.5,0.4,3.2,0.9,5.1,1.4l0,0c0.3,0.1,0.5,0.1,0.8,0.2
		c0.4,0.1,1,0.2,1.4,0.3h0c2.2,0.6,3.8,1.3,4.9,2.2c1.3,1,1.9,2.2,1.9,3.3c0,0.7-0.2,1.3-0.5,1.8c-0.3,0.5-0.8,1-1.4,1.3l0,0
		c-1.3,0.8-3.3,1.1-5.2,1.1c-1.9,0-3.8-0.5-5-1.3l0,0c-0.6-0.4-1.2-1-1.6-1.7C197.2,261.7,196.9,261,196.7,260.2"/>
	<polygon id="XMLID_8_" class="st1" points="274.3,276 287.4,276 287.4,257.3 287.4,256.8 287.8,256.8 304.2,256.8 304.7,256.8 
		304.7,257.3 304.7,276 317.9,276 317.9,224.2 304.7,224.2 304.7,243 304.7,243.5 304.2,243.5 287.8,243.5 287.4,243.5 287.4,243 
		287.4,224.2 274.3,224.2 	"/>
	<path id="XMLID_9_" class="st1" d="M103.1,224H89.9v32.7c0,4.2,0,7.6,0.3,10.2c0.3,2.5,0.8,4.4,1.7,5.7c0.9,1.3,2.2,2.1,4.1,2.6
		c2,0.5,4.5,0.7,7.9,0.7h15.6c3.3,0,5.9-0.1,7.8-0.5c1.9-0.4,3.2-1.1,4.1-2.4c0.9-1.2,1.5-3,1.8-5.4c0.3-2.5,0.4-5.8,0.4-10V224
		h-13.2v35.9l0,0.1c0,0.1,0,0.1,0,0.1v0c0,0.3-0.1,0.7-0.3,1c-0.2,0.3-0.4,0.6-0.7,0.8c-0.3,0.2-0.6,0.4-0.9,0.6
		c-0.3,0.1-0.7,0.2-1.1,0.2H117v0h-10.8v0l-0.2,0l0,0v0h0l-0.4,0v0c-0.2,0-0.5-0.1-0.7-0.1c-0.4-0.1-0.7-0.3-0.9-0.5
		c-0.3-0.2-0.5-0.5-0.6-0.9c-0.1-0.3-0.2-0.7-0.2-1.1v0l0-0.1l0,0h0v0l0-0.4h0V224z"/>
	<path id="XMLID_12_" class="st1" d="M366.4,276h13.2v-11.7v-0.5h0.5h16.4h0.5v0.5V276h13.2v-33.5c0-4.2-0.1-7.5-0.4-10
		c-0.3-2.5-0.8-4.2-1.8-5.4c-0.9-1.2-2.2-1.9-4.1-2.4c-1.9-0.4-4.5-0.5-7.8-0.5l-15.6,0c-3.4,0-6,0.2-7.9,0.7
		c-1.9,0.5-3.2,1.3-4.1,2.6c-0.9,1.3-1.4,3.2-1.7,5.7c-0.3,2.6-0.3,5.9-0.3,10.2L366.4,276z M379.7,250.1v-9.5h0l0-0.4v0h0l0,0
		l0-0.1v0c0-0.4,0.1-0.8,0.2-1.1c0.1-0.3,0.4-0.6,0.6-0.9c0.3-0.2,0.6-0.4,0.9-0.5c0.2-0.1,0.4-0.1,0.7-0.1l0,0l0.4,0h0v0l0,0l0.2,0
		v0h10.8v0h0.5c0.4,0,0.7,0.1,1.1,0.2c0.3,0.1,0.7,0.3,0.9,0.6c0.3,0.2,0.5,0.5,0.7,0.8c0.2,0.3,0.3,0.6,0.3,1c0,0,0,0,0,0.1l0,0
		c0,0.1,0,0.1,0,0.1v9.9v0.5h-0.5h-16.4h-0.5V250.1z"/>
</g>
</svg>
